<?xml version="1.0" encoding="utf-8"?>
<!-- Generator: Adobe Illustrator 23.0.0, SVG Export Plug-In . SVG Version: 6.00 Build 0)  -->
<svg version="1.1" id="Layer_1" xmlns="http://www.w3.org/2000/svg" xmlns:xlink="http://www.w3.org/1999/xlink" x="0px" y="0px"
	 viewBox="0 0 551.78 288" style="enable-background:new 0 0 551.78 288;" xml:space="preserve">
<style type="text/css">
	.st0{fill:#DBADCA;}
</style>
<g>
	<path class="st0" d="M56.12,130.58c-0.78-2.84-0.68-7.06,0.31-12.66c0.77-4.36,1.91-7.61,3.43-9.76c1.52-2.15,3.38-3.22,5.6-3.22
		c2.04,0,3.36,0.8,3.96,2.39c0.6,1.59,0.38,5.29-0.64,11.1l-2.19,12.45h34.25l1.17-6.64c2.35-13.34,2.92-22.8,1.72-28.37
		c-1.21-5.56-4.86-10.18-10.96-13.85c-6.1-3.66-13.94-5.5-23.52-5.5c-8.76,0-16.53,1.68-23.31,5.03c-6.78,3.35-12.08,8-15.91,13.95
		c-3.82,5.95-6.87,15.35-9.14,28.21c-1.01,5.73-1.49,10.8-1.47,15.21h43.03C58.85,135.75,56.72,132.96,56.12,130.58z"/>
	<path class="st0" d="M198.59,94.16c-2.64-5.88-6.73-10.28-12.25-13.22c-5.53-2.94-12.09-4.41-19.68-4.41
		c-8,0-15.28,1.56-21.85,4.67c-6.56,3.11-12.13,7.57-16.68,13.38c-4.56,5.81-7.79,12.22-9.7,19.24c-1.48,5.43-3.27,13.81-5.38,25.12
		h36.83l2.77-15.73c1.52-8.64,2.95-13.84,4.29-15.61c1.33-1.76,2.96-2.64,4.89-2.64c2.28,0,3.59,1.09,3.93,3.27
		c0.35,2.18-0.17,7.17-1.55,14.99l-2.77,15.73h36.83c1.94-11.67,3.11-20.2,3.51-25.59C202.3,106.44,201.24,100.04,198.59,94.16z"/>
	<path class="st0" d="M250.29,125.38c1.5-8.5,2.88-14.04,4.15-16.59c1.27-2.56,3.42-3.84,6.46-3.84c2.69,0,4.24,1.05,4.66,3.16
		c0.42,2.11-0.12,7.4-1.62,15.89l-2.63,14.94h36.88l0.3-1.71c2.76-15.67,3.69-27.22,2.78-34.64c-0.91-7.42-4.46-13.62-10.65-18.59
		c-6.19-4.97-14.72-7.46-25.58-7.46c-8,0-15.37,1.61-22.09,4.82c-6.73,3.21-12.32,7.62-16.79,13.22c-4.46,5.6-7.58,11.43-9.35,17.48
		c-1.75,5.99-3.68,14.96-5.79,26.88h36.88L250.29,125.38z"/>
	<polygon class="st0" points="258.79,153.18 295.67,153.18 297.69,141.77 260.81,141.77 	"/>
	<polygon class="st0" points="358.68,80.06 321.8,80.06 311.41,138.94 348.29,138.94 	"/>
	<polygon class="st0" points="375.1,80.06 349.89,138.94 382.89,138.94 409.7,80.06 	"/>
	<path class="st0" d="M403.12,138.94h43.03c-3.61-3.19-5.74-5.98-6.34-8.35c-0.78-2.84-0.68-7.06,0.31-12.66
		c0.77-4.36,1.91-7.61,3.43-9.76c1.52-2.15,3.38-3.22,5.6-3.22c2.04,0,3.36,0.8,3.96,2.39c0.59,1.59,0.38,5.29-0.64,11.1
		l-2.19,12.45h34.25l1.17-6.64c2.35-13.34,2.92-22.8,1.72-28.37c-1.21-5.56-4.86-10.18-10.96-13.85c-6.1-3.66-13.94-5.5-23.51-5.5
		c-8.76,0-16.53,1.68-23.31,5.03c-6.78,3.35-12.08,8-15.91,13.95c-3.82,5.95-6.87,15.35-9.13,28.21
		C403.58,129.45,403.09,134.52,403.12,138.94z"/>
	<polygon class="st0" points="507.07,80.06 499.38,138.94 532.89,138.94 545.97,80.06 	"/>
	<polygon class="st0" points="490.56,206.48 517.89,206.48 523.39,181.73 493.79,181.73 	"/>
	<polygon class="st0" points="494.16,178.89 524.02,178.89 532.26,141.77 499.01,141.77 	"/>
	<path class="st0" d="M17.62,244.86c6.2,4.42,14.23,6.64,24.1,6.64c8.99,0,17.22-1.92,24.67-5.76c0.56-0.29,1.09-0.59,1.62-0.89
		H17.61C17.61,244.85,17.62,244.86,17.62,244.86z"/>
	<path class="st0" d="M14.18,242.01h58.37c1.87-1.32,3.55-2.72,5.05-4.21H10.64C11.64,239.29,12.81,240.7,14.18,242.01z"/>
	<path class="st0" d="M65.86,141.77H19.53c0.09,1.38,0.22,2.7,0.42,3.94c0.94,5.74,2.62,10.23,5.02,13.48
		c2.41,3.25,7.56,8.47,15.46,15.66c1.74,1.56,3.32,3.02,4.76,4.39h47.62c-0.3-3.94-0.98-7.27-2.07-9.99
		C87.86,162.05,79.56,152.89,65.86,141.77z"/>
	<path class="st0" d="M48.12,182.08c3.47,3.46,5.77,6.13,6.88,8.02c1.46,2.55,1.69,7.52,0.7,14.88h35.13
		c1.58-8.99,2.28-16.61,2.11-22.9H48.12z"/>
	<path class="st0" d="M44.98,187.82H10.73l-1.94,10.99c-0.38,2.15-0.7,4.19-0.99,6.16h34.15L44.98,187.82z"/>
	<path class="st0" d="M55,209.49c-0.79,4.5-1.99,7.88-3.59,10.16c-1.6,2.28-3.63,3.42-6.08,3.42c-2.45,0-4-0.9-4.65-2.7
		s-0.42-5.84,0.69-12.14l0.08-0.44H7.42c-0.8,6.3-1.1,11.7-0.89,16.17h79.53c1.61-4.42,3.03-9.81,4.25-16.17H55.29
		C55.2,208.36,55.1,208.92,55,209.49z"/>
	<path class="st0" d="M6.9,227.95c0.35,2.51,1.07,4.84,2.12,7.02h71.15c0.91-1.12,1.73-2.29,2.45-3.49
		c0.81-1.37,1.59-2.93,2.33-4.67H6.76C6.8,227.2,6.84,227.58,6.9,227.95z"/>
	<path class="st0" d="M116.13,247.09c5.53,2.94,12.08,4.41,19.68,4.41c8,0,15.28-1.56,21.85-4.67c1.27-0.6,2.5-1.28,3.7-1.98H112.6
		C113.71,245.67,114.88,246.42,116.13,247.09z"/>
	<path class="st0" d="M109.36,242.01h56.24c1.71-1.28,3.32-2.69,4.85-4.21h-64.41C107.03,239.33,108.13,240.74,109.36,242.01z"/>
	<path class="st0" d="M149.38,141.77h-36.85c-0.46,2.5-0.93,5.12-1.42,7.88l-5.07,28.73c-0.05,0.29-0.1,0.57-0.15,0.86h36.88
		L149.38,141.77z"/>
	<path class="st0" d="M138.25,204.97c0.18-1.07,0.37-2.19,0.58-3.36l3.44-19.53H105.4c-1.6,9.26-2.81,16.89-3.62,22.9H138.25z"/>
	<path class="st0" d="M150.61,200.37c-0.29,1.64-0.57,3.17-0.84,4.61h36.48c1.31-6.01,2.8-13.64,4.46-22.9h-36.87L150.61,200.37z"/>
	<path class="st0" d="M154.33,179.24h36.88c0.05-0.29,0.1-0.57,0.15-0.86l5.07-28.73c0.49-2.76,0.94-5.38,1.36-7.88h-36.85
		L154.33,179.24z"/>
	<path class="st0" d="M146.25,219.14c-1.16,2.63-3,3.94-5.51,3.94c-2.45,0-3.82-1.14-4.08-3.42c-0.21-1.75,0.17-5.7,1.14-11.85
		h-36.38c-0.33,2.67-0.57,4.97-0.71,6.87c-0.24,3.21-0.13,6.31,0.32,9.3h79.32c1.54-3.11,2.79-6.37,3.71-9.76
		c0.49-1.81,1.02-3.94,1.58-6.4h-36.41C148.07,213.46,147.08,217.25,146.25,219.14z"/>
	<path class="st0" d="M103.88,233.87c0.17,0.38,0.37,0.74,0.55,1.11h68.63c0.43-0.5,0.87-1,1.28-1.52c1.67-2.13,3.16-4.35,4.48-6.64
		h-77.29C102.08,229.24,102.86,231.59,103.88,233.87z"/>
	<polygon class="st0" points="247.4,141.77 210.52,141.77 203.91,179.24 240.79,179.24 	"/>
	<path class="st0" d="M236.26,204.97c0.09-0.52,0.18-1.05,0.28-1.6l3.76-21.3h-36.88l-1.1,6.26c-1.08,6.12-1.9,11.66-2.46,16.64
		H236.26z"/>
	<path class="st0" d="M250.23,201.77c-0.2,1.12-0.39,2.19-0.58,3.21h36.44c1.22-5.18,2.42-11.1,3.59-17.77l0.9-5.13H253.7
		L250.23,201.77z"/>
	<path class="st0" d="M245.86,219.34c-1.29,2.5-3.3,3.74-6.05,3.74c-2.86,0-4.48-1.24-4.86-3.73c-0.31-2.01-0.02-5.85,0.85-11.54
		h-36.25c-0.62,6.43-0.78,11.82-0.46,16.17h81.04c1.79-3.94,3.55-9.34,5.26-16.17h-36.3C247.91,213.59,246.84,217.44,245.86,219.34z
		"/>
	<path class="st0" d="M201.83,234.97h70.85c2.39-2.57,4.4-5.29,6.01-8.17h-79.28C199.86,229.77,200.65,232.5,201.83,234.97z"/>
	<path class="st0" d="M206.81,242.01h57.89c1.85-1.35,3.56-2.75,5.15-4.21h-66.42C204.4,239.31,205.51,240.72,206.81,242.01z"/>
	<path class="st0" d="M235.24,251.5c9.35,0,17.76-2.22,25.22-6.65h-50.26C216.35,249.27,224.68,251.5,235.24,251.5z"/>
	<polygon class="st0" points="292.19,247.97 329.07,247.97 329.62,244.85 292.74,244.85 	"/>
	<polygon class="st0" points="294.48,234.97 331.36,234.97 332.8,226.81 295.92,226.81 	"/>
	<polygon class="st0" points="380.52,226.81 343.34,226.81 343.6,234.97 381.13,234.97 	"/>
	<polygon class="st0" points="296.42,223.97 333.3,223.97 336.15,207.81 299.27,207.81 	"/>
	<polygon class="st0" points="377.15,182.08 341.95,182.08 342.66,204.97 378.87,204.97 	"/>
	<g>
		<polygon class="st0" points="375.18,155.87 381.6,141.77 348.68,141.77 347.17,145.29 347.79,141.77 310.91,141.77 304.31,179.24 
			341.19,179.24 341.76,175.99 341.86,179.24 376.94,179.24 		"/>
	</g>
	<polygon class="st0" points="299.77,204.97 336.65,204.97 340.69,182.08 303.81,182.08 	"/>
	<polygon class="st0" points="379.09,207.81 342.75,207.81 343.26,223.97 380.3,223.97 	"/>
	<polygon class="st0" points="381.35,237.81 343.69,237.81 343.82,242.01 381.66,242.01 	"/>
	<polygon class="st0" points="293.24,242.01 330.12,242.01 330.86,237.81 293.98,237.81 	"/>
	<polygon class="st0" points="343.91,244.85 344,247.97 382.11,247.97 381.87,244.85 	"/>
	<path class="st0" d="M401.32,244.86c6.2,4.42,14.23,6.64,24.1,6.64c8.99,0,17.22-1.92,24.67-5.76c0.56-0.29,1.09-0.59,1.62-0.89
		H401.3C401.31,244.85,401.31,244.86,401.32,244.86z"/>
	<path class="st0" d="M438.7,209.49c-0.79,4.5-1.99,7.88-3.59,10.16c-1.6,2.28-3.63,3.42-6.08,3.42c-2.45,0-4-0.9-4.65-2.7
		c-0.65-1.8-0.42-5.84,0.69-12.14l0.08-0.44h-34.04c-0.8,6.3-1.1,11.7-0.89,16.17h79.53c1.61-4.42,3.03-9.81,4.25-16.17h-35.03
		C438.89,208.36,438.8,208.92,438.7,209.49z"/>
	<path class="st0" d="M476.51,179.24c-0.3-3.94-0.98-7.27-2.07-9.99c-2.88-7.2-11.18-16.36-24.88-27.48h-46.33
		c0.09,1.38,0.22,2.7,0.42,3.94c0.94,5.74,2.62,10.23,5.02,13.48c2.41,3.25,7.56,8.47,15.46,15.66c1.74,1.56,3.32,3.02,4.76,4.39
		H476.51z"/>
	<path class="st0" d="M431.82,182.08c3.47,3.46,5.77,6.13,6.88,8.02c1.46,2.55,1.69,7.52,0.7,14.88h35.13
		c1.58-8.99,2.28-16.61,2.11-22.9H431.82z"/>
	<path class="st0" d="M392.49,198.81c-0.38,2.15-0.7,4.19-0.99,6.16h34.15l3.03-17.16h-34.25L392.49,198.81z"/>
	<path class="st0" d="M390.59,227.95c0.35,2.51,1.07,4.84,2.12,7.02h71.15c0.91-1.12,1.73-2.29,2.45-3.49
		c0.81-1.37,1.59-2.93,2.33-4.67h-78.19C390.49,227.2,390.54,227.58,390.59,227.95z"/>
	<path class="st0" d="M397.87,242.01h58.37c1.87-1.32,3.55-2.72,5.05-4.21h-66.96C395.33,239.29,396.5,240.7,397.87,242.01z"/>
	<polygon class="st0" points="482.65,234.97 515.76,234.97 517.2,226.81 484.09,226.81 	"/>
	<polygon class="st0" points="484.59,223.97 517.7,223.97 519.39,214.37 486.28,214.37 	"/>
	<polygon class="st0" points="481.41,242.01 514.52,242.01 515.26,237.81 482.15,237.81 	"/>
	<polygon class="st0" points="480.36,247.97 513.47,247.97 514.02,244.85 480.91,244.85 	"/>
</g>
</svg>
